# xmcd CD database file
#
# Track frame offsets:
#	150
#	2659
#	26968
#	63282
#	102022
#	138251
#	171600
#	202243
#	246217
#
# Disc length: 3834 seconds
#
# Revision: 0
# Processed by: cddbd v1.5.2PL0 Copyright (c) Steve Scherf et al.
# Submitted via: CDex 1.51
#
DISCID=7e0ef809
DTITLE=Nicolas Meier - Yüz
DYEAR=2006
DGENRE=Jazz
TTITLE0=Bazaar
TTITLE1=Vatan=Homeland
TTITLE2=Esmeralda
TTITLE3=Yüz=Face
TTITLE4=Horizon
TTITLE5=Yemin=Pledge
TTITLE6=Neden=Why
TTITLE7=Anatolu Kervani=Caravan of Anatolia
TTITLE8=Scottish Heart
EXTD=YEAR: 2006
EXTT0=
EXTT1=
EXTT2=
EXTT3=
EXTT4=
EXTT5=
EXTT6=
EXTT7=
EXTT8=
PLAYORDER=
